#!OML:ASF G:\JayActor3\Patient Classification 1\Patient 1\Session 6\male.ASF
:FULLY-SPECIFIED
:DEGREES
788
root 25.9196 15.9519 -15.0029 -160.278 -51.9891 -183.219
lowerback 26.8627 -1.05467 1.00236
upperback 0.986417 -1.60702 -1.89975
thorax -14.0382 -0.98064 -2.13414
lowerneck -11.3627 6.39769 4.64224
upperneck 4.76254 8.10858 -3.25123
head 3.97361 3.95399 -1.32998
rclavicle -3.35946e-014 5.68524e-014
rhumerus -52.589 15.0564 -99.3064
rradius 53.8539
rwrist -9.32696
rhand -24.8169 3.17334
rfingers 7.12502
rthumb 1.68839 -26.7997
lclavicle -3.35946e-014 5.68524e-014
lhumerus -62.8117 -31.4227 104.873
lradius 51.8323
lwrist 46.1552
lhand -26.4573 -4.68722
lfingers 7.12502
lthumb 0.104026 25.2925
rfemur -61.8171 3.83857 17.0526
rtibia 45.3109
rfoot -22.6509 -11.8173
rtoes -12.5581
lfemur 2.82745 -1.81637 -26.36
ltibia -2.8625e-014
lfoot -13.285 -6.68516
ltoes 0.186496
789
root 25.7976 15.949 -15.0914 -160.361 -52.2124 -183.223
lowerback 26.5891 -1.16992 1.09573
upperback 1.0307 -1.7223 -1.86762
thorax -13.8427 -1.03494 -2.109
lowerneck -11.0357 6.41095 4.62549
upperneck 4.99137 8.15743 -3.3066
head 3.99538 3.98041 -1.34835
rclavicle -3.18055e-015 -5.1684e-015
rhumerus -52.571 14.5949 -98.9646
rradius 54.1491
rwrist -9.10828
rhand -24.8394 3.39104
rfingers 7.12502
rthumb 1.66672 -26.5822
lclavicle -3.18055e-015 -5.1684e-015
lhumerus -63.0153 -31.446 104.82
lradius 52.4983
lwrist 46.1712
lhand -26.5272 -4.68756
lfingers 7.12502
lthumb 0.0365632 25.2922
rfemur -60.8775 4.67612 16.2923
rtibia 43.4192
rfoot -23.1204 -12.0601
rtoes -12.5743
lfemur 3.47989 -1.59413 -26.3064
ltibia -2.54444e-014
lfoot -13.0292 -7.12189
ltoes -0.0735426
790
root 25.6735 15.947 -15.1809 -160.467 -52.4772 -183.201
lowerback 26.3296 -1.30315 1.2395
upperback 1.07759 -1.84685 -1.8355
thorax -13.6543 -1.09691 -2.11052
lowerneck -10.6108 6.41104 4.59302
upperneck 5.13004 8.19028 -3.34283
head 3.96276 4.0002 -1.36289
rclavicle 7.03698e-014 1.86858e-014
rhumerus -52.5517 14.1226 -98.6045
rradius 54.4528
rwrist -8.84109
rhand -24.8689 3.57535
rfingers 7.12502
rthumb 1.6382 -26.3981
lclavicle 7.03698e-014 1.86858e-014
lhumerus -63.2109 -31.4477 104.744
lradius 53.1881
lwrist 46.1823
lhand -26.594 -4.69747
lfingers 7.12502
lthumb -0.0279933 25.2823
rfemur -59.9184 5.46449 15.6228
rtibia 41.8288
rfoot -23.4651 -12.3894
rtoes -12.6021
lfemur 4.13993 -1.40569 -26.2173
ltibia -2.8625e-014
lfoot -12.6333 -7.56743
ltoes -0.363276
791
root 25.5483 15.9462 -15.2709 -160.585 -52.7624 -183.153
lowerback 26.0931 -1.44349 1.41765
upperback 1.11724 -1.97144 -1.8046
thorax -13.4889 -1.16122 -2.13416
lowerneck -10.0694 6.40436 4.55251
upperneck 5.16699 8.21555 -3.36829
head 3.86954 4.01763 -1.37777
rclavicle -7.81224e-014 -3.18055e-014
rhumerus -52.5372 13.6474 -98.2329
rradius 54.76
rwrist -8.55425
rhand -24.8934 3.69927
rfingers 7.12502
rthumb 1.61457 -26.2744
lclavicle -7.81224e-014 -3.18055e-014
lhumerus -63.3812 -31.408 104.628
lradius 53.8818
lwrist 46.1814
lhand -26.6339 -4.70315
lfingers 7.12502
lthumb -0.0664649 25.2766
rfemur -58.9448 6.18051 15.0865
rtibia 40.5096
rfoot -23.6599 -12.6985
rtoes -12.5722
lfemur 4.78702 -1.23259 -26.0977
ltibia 9.54166e-015
lfoot -12.0556 -8.01238
ltoes -0.793795
792
root 25.4218 15.9469 -15.3618 -160.7 -53.0406 -183.084
lowerback 25.8725 -1.57744 1.60656
upperback 1.14744 -2.08593 -1.77783
thorax -13.3441 -1.22184 -2.1732
lowerneck -9.40311 6.39707 4.52169
upperneck 5.0883 8.24077 -3.40477
head 3.71258 4.03608 -1.40325
rclavicle -4.35338e-014 -4.6118e-014
rhumerus -52.5181 13.1635 -97.8402
rradius 55.0569
rwrist -8.27732
rhand -24.9015 3.81114
rfingers 7.12502
rthumb 1.60666 -26.1626
lclavicle -4.35338e-014 -4.6118e-014
lhumerus -63.5085 -31.3158 104.454
lradius 54.5591
lwrist 46.131
lhand -26.6656 -4.73287
lfingers 7.12502
lthumb -0.0971362 25.2469
rfemur -57.9506 6.81807 14.6971
rtibia 39.4171
rfoot -23.7086 -12.8683
rtoes -12.4866
lfemur 5.40838 -1.05192 -25.9619
ltibia 3.49861e-014
lfoot -11.2451 -8.44534
ltoes -1.38445
793
root 25.294 15.95 -15.4544 -160.802 -53.3463 -183.032
lowerback 25.6811 -1.71543 1.8057
upperback 1.17752 -2.20481 -1.75711
thorax -13.2171 -1.2855 -2.22376
lowerneck -8.60366 6.38898 4.49792
upperneck 4.87317 8.26637 -3.4581
head 3.48458 4.0557 -1.44122
rclavicle 2.36554e-014 6.32135e-014
rhumerus -52.4806 12.6568 -97.4219
rradius 55.333
rwrist -8.00984
rhand -24.8983 3.97116
rfingers 7.12502
rthumb 1.60978 -26.0025
lclavicle 2.36554e-014 6.32135e-014
lhumerus -63.5721 -31.1658 104.204
lradius 55.2151
lwrist 46.0168
lhand -26.6836 -4.76961
lfingers 7.12502
lthumb -0.114468 25.2101
rfemur -56.8856 7.36559 14.4301
rtibia 38.5006
rfoot -23.6574 -12.8555
rtoes -12.2655
lfemur 6.01969 -0.901357 -25.8218
ltibia -9.54166e-015
lfoot -10.138 -8.84381
ltoes -2.14146
